<svg xmlns="http://www.w3.org/2000/svg" viewBox="0 0 256 256">
  <rect width="256" height="256" fill="none"/>
  <path d="M208,24a8,8,0,0,0-8,8V60.6a88.1,88.1,0,0,0-21.5,13.9L139.3,112h-21l32.5-32.5A88,88,0,0,0,174,32a8,8,0,0,0-16,0,72.1,72.1,0,0,1-18.2,47.8L112.7,106.9A96.2,96.2,0,0,0,48,224a8,8,0,0,0,13.6,5.7c17.6-17.6,44.9-52.5,50.1-92.4l11.6,11.6A72.1,72.1,0,0,1,171.2,168a8,8,0,0,0,8,8,88,88,0,0,0,47.5-23.2l32.5-32.5v21a8,8,0,0,0,16,0V104a8,8,0,0,0-8-8H232a8,8,0,0,0,0,16h21l-27.1,27.2A72.1,72.1,0,0,1,208,153.4V32A8,8,0,0,0,208,24ZM98.2,126.6l-8,8A80.5,80.5,0,0,1,65.3,197C72.9,165.2,90.4,136.9,98.2,126.6Z" fill="#10B981"/>
</svg>